<svg width="200" height="37" viewBox="0 0 200 37" fill="none" xmlns="http://www.w3.org/2000/svg">
<g clip-path="url(#clip0_7714_666)">
<path d="M39.7611 35.8465L40.1292 35.9385C39.3747 36.1014 38.6173 36.4152 37.8287 36.3977L39.7611 35.8465Z" fill="white"/>
<path d="M39.7612 35.8465C47.4119 33.5735 56.9759 28.5178 61.6064 21.8489C67.1352 13.8871 63.6935 7.03144 55.1262 4.05451C48.5668 1.77511 40.6096 2.04014 33.8496 3.29532C33.049 3.44348 31.0282 4.09868 30.42 4.09868H26.601L28.3918 3.35882C38.6321 -0.207975 52.4575 -1.62052 62.6721 2.58123C72.2525 6.52256 75.0473 14.3298 67.8741 22.5041C61.3396 29.9506 49.5745 33.8947 40.1283 35.9385C39.9149 35.9771 39.7915 35.9459 39.7603 35.8465H39.7612Z" fill="white"/>
<path d="M57.6687 25.0439C48.5502 34.4956 32.5686 37.8636 19.8401 36.4888C17.2984 36.2146 14.4945 35.7655 12.2482 34.5103C12.3117 34.4054 12.5298 34.4772 12.6356 34.491C14.2359 34.6962 15.8353 35.0671 17.4475 35.2005C27.5764 36.0379 37.9428 33.8478 46.7254 28.7755C52.7418 25.3016 60.2564 19.7094 59.6371 11.8746C59.5138 10.3139 58.7601 8.91331 58.1665 7.5026C58.2724 7.39401 59.8791 8.62896 60.0549 8.78816C61.4978 10.0903 62.5514 11.928 62.6793 13.8936C62.9812 18.5665 60.7487 21.8508 57.6687 25.043V25.0439Z" fill="white"/>
<path d="M47.9511 26.3682L40.246 30.8561L39.2089 30.8763C39.4666 29.7675 39.1141 27.95 37.9178 27.5194C36.1703 26.8908 35.3605 29.9478 35.897 31.1515L30.0996 31.6125L30.2367 6.67346C30.7787 6.75996 31.2885 7.01119 31.848 6.95045L31.9391 26.3682H47.9511Z" fill="white"/>
<path d="M29.2706 10.6323V26.5522H24.5314C24.3235 26.5522 23.8413 25.8142 23.8413 25.586V19.5585C24.1965 19.4738 25.0035 19.5824 25.1535 19.2603C25.2676 19.0146 25.2695 16.5972 25.2225 16.1978C25.1093 15.2334 23.9793 15.8334 23.8532 15.4506L23.8404 11.5985C23.8404 11.1945 23.0913 11.4439 23.0121 11.3685C23.094 10.5522 23.9811 10.2044 24.7118 10.1685L29.2688 10.6332L29.2706 10.6323Z" fill="white"/>
<path d="M56.8165 18.7616C56.5874 18.9659 56.7383 19.1517 56.211 19.079L32.7646 13.0727L32.6901 8.29952L33.2716 7.97284C40.8331 11.2498 48.4848 14.3574 56.0196 17.7015C56.2129 17.787 57.2214 18.2131 57.2463 18.318C57.2288 18.5545 56.9628 18.6318 56.8174 18.7616H56.8165Z" fill="white"/>
<path d="M26.7859 5.38699L25.7102 5.92164C23.5467 7.08849 22.2529 8.90226 21.6244 11.2672C17.5552 11.1163 13.4648 11.1752 9.39368 11.0004C9.64674 9.21422 10.1216 6.96426 11.7587 5.95753C11.9961 5.81214 12.8951 5.38699 13.1206 5.38699H26.7859Z" fill="white"/>
<path d="M32.6754 14.3132C32.6901 14.292 33.0812 14.1779 33.164 14.154C39.9424 16.1178 46.707 18.1376 53.4688 20.1603C53.9639 20.3085 54.5464 20.3812 55.0378 20.6177C55.035 20.7888 53.64 22.2658 53.2424 22.0504C47.1938 21.0686 41.0807 20.4355 35.0339 19.4536C34.5048 19.368 33.6628 19.2953 33.2008 19.1701C33.1576 19.1582 32.6745 18.9428 32.6745 18.9143C32.6745 18.3226 32.5466 14.5037 32.6745 14.3132H32.6754Z" fill="white"/>
<path d="M32.6754 20.4787L51.9091 23.4704C51.91 23.613 51.8078 23.7317 51.7158 23.8292C51.5723 23.9802 49.9987 25.2556 49.8827 25.309C49.4907 25.4893 45.8291 25.3403 45.0497 25.3531C41.4811 25.412 37.548 25.6587 34.0107 25.5473C33.6775 25.5372 32.6773 25.2565 32.6773 24.8507V20.4796L32.6754 20.4787Z" fill="white"/>
<path d="M29.2705 27.1043V31.6134L20.8965 32.2567C21.6004 30.6067 21.4044 28.8877 20.8026 27.2433L29.2696 27.1043H29.2705Z" fill="white"/>
<path d="M29.2706 5.38701V10.0802C28.019 10.0277 26.785 9.7406 25.5427 9.62097C24.3004 9.50134 23.6121 9.32374 22.6256 10.2909C22.5547 10.3608 22.4618 10.6038 22.46 10.3093C23.486 7.35537 26.0985 5.364 29.2706 5.38701Z" fill="white"/>
<path d="M20.8955 29.1279L20.5284 28.3457C19.3992 26.9405 18.5858 28.85 18.5002 29.9073C18.4072 31.0567 18.9493 33.5772 20.4823 32.2576C20.5523 32.6248 19.9265 33.3352 19.5842 33.476C18.7238 33.8303 18.0355 33.1953 17.6867 32.4757C16.9652 30.9877 17.0021 28.5454 17.9683 27.166C19.4038 25.1176 20.8652 27.593 20.8955 29.127V29.1279Z" fill="white"/>
<path d="M38.84 29.1288C38.506 28.8445 38.4094 28.3522 37.8701 28.6641C37.1809 29.0635 37.2066 30.3951 37.5352 31.0328C37.8075 31.5619 38.0717 31.4128 38.5667 31.3834C37.6161 32.8024 36.6416 31.3052 36.5524 30.1751C36.395 28.169 38.137 26.5513 38.841 29.1279L38.84 29.1288Z" fill="white"/>
<path d="M21.7671 11.9243C17.3077 11.6758 12.8068 11.7715 8.33268 11.6409C7.07934 11.7495 6.69284 12.4277 6.33303 13.5062C5.75973 15.2242 5.48274 17.0536 4.87263 18.7634C3.54014 19.9017 1.78987 20.4787 1.58282 22.4673C1.45307 23.717 1.45767 26.2605 1.5681 27.5212C1.63803 28.3227 1.94263 28.4617 2.61347 28.7764C4.73552 29.7693 7.34804 29.8236 9.57775 29.174C10.5348 28.8951 11.2148 28.7322 11.4854 27.6767C11.8765 26.1492 11.8259 24.2379 12.1802 22.667C12.2179 22.5005 12.2372 22.3238 12.3347 22.1775C14.4402 20.7594 16.7666 19.5889 19.3248 19.2742C19.3754 18.7073 19.9533 15.0494 20.4824 15.0494H21.9088V19.5125C21.9088 19.8456 20.2469 19.7269 19.9423 19.7545C18.4432 19.8879 16.5945 20.4962 15.2215 21.1072C14.5276 21.4155 13.0801 21.9943 12.9127 22.7554L12.2464 27.8396C12.4139 27.9767 12.9577 27.2461 13.0719 27.1476C14.7365 25.7102 17.3702 24.4247 19.6119 25.0302C20.8919 25.3762 21.7671 26.6958 23.1971 26.4602V12.0587C23.1971 11.8314 22.0017 11.9372 21.7671 11.9243ZM18.0466 18.411C17.7668 18.7275 17.1135 18.6548 16.7058 18.642C14.5718 18.5775 12.4111 18.2849 10.2716 18.2665C9.06518 18.2555 7.40786 18.4892 6.3091 18.364C5.80942 18.307 5.76893 18.1533 5.8131 17.6831C5.87292 17.0564 6.2723 15.769 6.47475 15.1221C6.57505 14.8009 6.88333 13.6764 7.15663 13.5954C7.58914 13.4666 9.66241 13.5614 10.2716 13.5733C11.3565 13.5954 12.4903 13.7279 13.5771 13.7648C15.1129 13.8172 17.073 13.6783 18.5518 13.8513C18.8757 13.889 19.0957 14.0059 19.1371 14.3555C18.7782 15.1414 18.5039 17.8938 18.0475 18.411H18.0466Z" fill="white"/>
<path d="M17.6757 25.4489C16.0911 25.5418 14.6923 26.1795 13.5338 27.2415C12.1047 28.5509 12.4507 29.0359 10.2927 29.7058C8.39983 30.2929 6.73606 30.4705 4.77414 30.1144C4.15483 30.0021 1.46225 29.3037 1.29661 28.7147V24.7118L0.741711 25.8593C0.57607 26.3001 -0.0506043 28.1856 0.00368905 28.5279C0.0662644 28.9218 0.667172 28.6798 0.904591 28.8758C0.987411 28.9439 1.44292 29.9708 1.38863 30.0472C0.946921 30.1577 0.473004 29.9865 0.00829018 30.0472C-0.0239177 30.7079 0.0809881 31.3631 0.187734 32.0137C0.288959 32.1895 1.54967 32.1094 1.78617 32.1812C1.95917 32.2346 2.3429 32.8889 2.55364 33.0702C3.34779 33.7539 4.52476 33.6932 5.25818 32.9487C5.44039 32.7637 5.58026 32.3616 5.75786 32.3404L16.7573 32.715C15.8086 30.28 15.7902 27.4292 17.6776 25.447L17.6757 25.4489ZM15.0089 30.3721C14.8295 30.4576 13.174 30.5911 12.8473 30.6049C12.701 30.6113 12.2823 30.6343 12.2464 30.4604C12.2335 30.3978 12.8381 29.3929 12.8924 29.3598C13.0396 29.2687 15.3751 28.8528 15.4681 28.9448C15.5316 29.0074 15.2003 30.281 15.0098 30.3721H15.0089Z" fill="white"/>
</g>
<g clip-path="url(#clip1_7714_666)">
<path d="M85.726 7.7037L88.2903 14.7676L90.7445 7.7037H94.5735V18.856H91.9713L91.9341 11.123L89.0747 18.8218C89.0018 18.8709 87.5 18.888 87.3245 18.856C87.2412 18.8412 87.1825 18.8196 87.1453 18.7378L84.3141 11.1245L84.3877 18.856H81.8599V9.7483L80.1498 7.7037H85.726Z" fill="white"/>
<path d="M121.488 11.9416L121.494 17.8575C119.539 18.8642 116.719 19.1601 114.648 18.3713C109.791 16.5207 109.831 9.16318 114.778 7.42491C116.936 6.66656 119.784 6.95875 121.486 8.55873L119.849 10.4531C119.244 10.1193 118.798 9.67545 118.071 9.5208C112.999 8.44275 112.145 17.0501 118.097 16.3943C118.248 16.3772 119.034 16.1862 119.034 16.0679V14.2092C119.034 14.201 118.931 14.0977 118.923 14.0977H116.878V11.9788C116.878 11.813 117.052 11.9416 117.064 11.9416H121.488Z" fill="white"/>
<path d="M100.001 7.62936V11.8672H104.313V7.62936H107.064V18.856H104.425C104.417 18.856 104.313 18.7527 104.313 18.7445V14.172H100.001V18.856H97.3244V9.897C96.9006 9.18846 96.0419 8.55277 95.6107 7.8933C95.5504 7.80185 95.52 7.74535 95.54 7.62936H100.001Z" fill="white"/>
<path d="M128.885 7.33197C130.406 7.49256 132.103 8.45463 132.268 10.1208C132.447 11.9342 131.722 13.1304 130.036 13.7661L132.831 18.4069C132.897 18.4523 132.761 18.5586 132.752 18.5586H129.778L127.325 14.1713C127.143 14.0092 126.647 14.1364 126.395 14.0977V18.4471C126.395 18.4553 126.291 18.5586 126.283 18.5586H123.83C123.822 18.5586 123.718 18.4553 123.718 18.4471V12.0903H128.291C128.401 12.0903 129.024 11.8382 129.141 11.7513C129.616 11.3981 129.724 10.6293 129.431 10.1312C129.143 9.63975 128.294 9.55128 127.769 9.52972C126.449 9.47693 125.093 9.63306 123.767 9.5654C123.323 8.82638 122.64 8.24423 122.119 7.55502C122.062 7.48067 121.975 7.46208 122.007 7.33197H128.885H128.885Z" fill="white"/>
<path d="M149.889 16.2538H152.714L150.633 10.4553L147.621 18.5586H144.759L149.477 7.32675C149.865 7.3959 151.931 7.22266 152.083 7.40631L156.644 18.3869C156.684 18.4449 156.562 18.5594 156.544 18.5594H151.86C151.165 17.827 150.496 17.0605 149.89 16.2546L149.889 16.2538Z" fill="white"/>
<path d="M192.937 7.33197C192.941 7.42193 192.974 7.50297 193.022 7.57806C194.39 9.72674 195.727 12.3334 197.188 14.3445C197.242 14.4196 197.298 14.5237 197.397 14.5438L197.323 7.33197H200V18.4471C200 18.4553 199.897 18.5586 199.888 18.5586H196.915L192.453 11.3461L192.305 18.5586H189.814V9.15351C189.814 9.02117 188.415 7.64498 188.327 7.33197H192.937Z" fill="white"/>
<path d="M180.744 7.33198V14.581C180.744 15.036 181.229 15.7661 181.599 16.03C182.858 16.9297 184.907 16.0509 184.907 14.4323V7.33198H187.658V14.6553C187.658 19.7772 178.408 20.7564 177.99 14.5096C177.874 12.7765 178.084 10.9156 177.991 9.16839C177.455 8.57881 176.883 7.98476 176.431 7.33124H180.744V7.33198Z" fill="white"/>
<path d="M168.748 16.0792C168.857 15.9751 169.281 15.413 169.403 15.4323C169.819 15.7327 170.15 16.0769 170.633 16.2903C171.385 16.6219 172.866 16.7936 173.272 15.8829C173.981 14.2903 171.371 13.9662 170.389 13.5602C168.928 12.955 168.112 11.9959 168.179 10.3446C168.333 6.57961 174.037 6.21381 176.205 8.41825C176.23 8.53944 174.714 9.98107 174.525 10.2264C173.74 9.55282 173.072 9.23089 172.004 9.33572C170.717 9.46211 170.495 10.8398 171.845 11.4353C173.437 12.1379 175.846 12.3476 176.128 14.587C176.678 18.9512 170.945 19.8486 168.216 17.7408C168.087 17.6412 167.619 17.213 167.691 17.0725C167.805 16.8509 168.524 16.291 168.748 16.0792Z" fill="white"/>
<path d="M164.759 7.33197C164.791 7.46282 164.704 7.48067 164.647 7.55502C164.117 8.25687 163.43 8.89329 162.974 9.63678H160.67V18.4471C160.67 18.4553 160.566 18.5586 160.558 18.5586H157.956C157.948 18.5586 157.844 18.4553 157.844 18.4471V9.63678H154.722V7.33197H164.759Z" fill="white"/>
<path d="M142.343 16.1795L142.505 16.2791L144.313 18.5586H134.276V16.1795H142.343Z" fill="white"/>
<path d="M134.276 9.63678V7.33197L144.202 7.34089L144.276 7.48067L142.417 9.63678H134.276Z" fill="white"/>
<path d="M141.413 11.7185H134.276V13.8746H141.413V11.7185Z" fill="white"/>
<path d="M176.729 21.83C176.869 21.9712 176.108 25.2099 176.069 25.7429C176.01 26.5615 176.318 27.2559 177.209 27.3347C178.536 27.4522 179.01 26.7013 179.295 25.5481C179.593 24.3415 179.658 23.0523 179.996 21.8627C180.115 21.8062 180.549 21.7794 180.577 21.9378C180.031 23.7013 180.382 27.2136 178.144 27.818C176.515 28.2582 175.321 27.3935 175.474 25.6678C175.545 24.8627 175.867 22.7935 176.11 22.0664C176.227 21.7162 176.411 21.8433 176.73 21.83H176.729Z" fill="white"/>
<path d="M158.514 24.3578C159.171 23.5281 160.938 23.4612 161.109 24.6991C161.151 25.0062 160.781 27.6693 160.662 27.7704C160.614 27.8113 160.122 27.8173 160.084 27.6612C160.165 26.8894 160.506 25.9705 160.523 25.2091C160.557 23.6939 158.759 24.0731 158.342 25.3392C158.195 25.7876 158.047 27.4879 157.883 27.705C157.78 27.8418 157.479 27.76 157.324 27.7771L158.434 21.4902C158.555 21.4367 158.988 21.4062 159.017 21.566L158.514 24.3571V24.3578Z" fill="white"/>
<path d="M109.369 21.4582L108.701 25.5474L110.531 23.9214C110.787 23.7749 111.095 23.8537 111.376 23.8381L109.375 25.6693L111.079 27.7779C110.821 27.7563 110.519 27.8455 110.293 27.7095C109.74 27.0649 109.235 26.3571 108.626 25.7712C108.477 26.1504 108.476 27.4641 108.292 27.7057C108.191 27.8396 107.894 27.763 107.732 27.7786L108.774 21.4597H109.368L109.369 21.4582Z" fill="white"/>
<path d="M170.707 21.459L169.964 25.4731C170.09 25.4902 170.18 25.3883 170.275 25.3199C170.811 24.9348 171.361 24.2946 171.898 23.876L172.714 23.8381L170.635 25.6619L172.117 27.3704L172.342 27.7771L171.576 27.7072L170 25.7705C169.759 26.0961 169.765 27.6619 169.467 27.7652C169.356 27.8039 169.042 27.8113 169.006 27.6604L170.089 21.5482C170.162 21.3564 170.515 21.4961 170.706 21.4582L170.707 21.459Z" fill="white"/>
<path d="M157.77 21.83C157.708 21.9497 157.726 22.2686 157.683 22.337C157.55 22.5467 155.78 22.3214 155.679 22.4671C155.409 23.0448 154.936 27.7199 154.672 27.7801C154.524 27.8143 154.291 27.7526 154.126 27.7771L155.018 22.424H153.197C153.007 22.424 153.177 21.8292 153.271 21.8292H157.769L157.77 21.83Z" fill="white"/>
<path d="M96.4322 21.83C96.4478 22.0032 96.4263 22.3482 96.2345 22.4128C95.9631 22.5043 94.4174 22.3578 94.3512 22.4255C94.1899 23.0411 93.5951 27.6819 93.3371 27.7682C93.2062 27.8121 93.0077 27.7637 92.8627 27.7778C93.0494 25.9838 93.4605 24.2061 93.7549 22.4247H91.8219C91.8152 22.3043 91.7899 21.83 91.9334 21.83H96.4315H96.4322Z" fill="white"/>
<path d="M103.58 23.8478C103.667 23.7935 103.961 23.8619 104.091 23.8374V24.3578C104.753 23.5311 106.37 23.4463 106.688 24.6233C106.743 25.682 106.393 26.705 106.251 27.7459C106.109 27.8009 105.701 27.8314 105.661 27.6612C105.618 27.4805 106.057 25.6887 106.089 25.2783C106.214 23.7251 104.422 24.0285 103.945 25.2917C103.77 25.7563 103.609 27.5095 103.46 27.7058C103.373 27.8195 103.015 27.8203 102.932 27.7065L103.58 23.8478Z" fill="white"/>
<path d="M166.989 27.7786C166.918 27.0277 167.775 24.9281 167.136 24.3972C166.805 24.1229 166.199 24.2248 165.855 24.4344C165.026 24.9407 164.985 26.8322 164.8 27.7087C164.717 27.8322 164.385 27.7652 164.237 27.7786L164.832 23.8374H165.427L165.353 24.3586C166.075 23.4456 168.058 23.5013 168.035 24.9162C168.028 25.3162 167.701 27.2983 167.569 27.653C167.492 27.8612 167.173 27.7608 166.988 27.7786H166.989Z" fill="white"/>
<path d="M113.941 27.7779C113.9 27.766 113.821 27.6708 113.844 27.6098L114.874 21.8337L115.466 21.83C115.28 23.624 114.802 25.389 114.574 27.1831H117.251C117.257 27.3035 117.283 27.7779 117.139 27.7779H113.942H113.941Z" fill="white"/>
<path d="M183.645 24.7288C183.638 24.7251 183.66 24.6471 183.588 24.5824C182.892 23.9608 181.526 24.2879 181.898 25.0998C182.106 25.5563 183.65 25.5058 183.788 26.4069C184.045 28.0946 181.456 28.2611 180.672 27.1459C180.802 27.0225 181.04 26.7928 181.221 26.8069C181.255 26.8099 181.532 27.1794 181.743 27.2634C182.286 27.4805 183.34 27.3065 183.197 26.5541C183.077 25.9229 181.414 26.0418 181.27 25.0597C181.083 23.7787 182.944 23.427 183.788 24.0292C183.855 24.0768 184.075 24.2753 184.085 24.3318C184.107 24.456 183.672 24.7459 183.646 24.7303L183.645 24.7288Z" fill="white"/>
<path d="M143.511 25.1608C143.74 25.5571 145.421 25.4708 145.428 26.6247C145.435 27.7095 144.172 27.9942 143.297 27.789C143.085 27.7392 142.032 27.2671 142.382 27.0009C142.936 26.5801 142.96 27.1623 143.417 27.2983C143.906 27.4433 144.737 27.3883 144.82 26.7548C144.937 25.8582 143.01 26.1095 142.898 25.0656C142.757 23.7519 144.574 23.4024 145.424 24.0285C145.615 24.1697 145.824 24.3147 145.616 24.508C145.234 24.8619 145.163 24.479 144.887 24.3422C144.525 24.163 143.641 24.1876 143.511 24.6337C143.481 24.737 143.465 25.0812 143.511 25.1615L143.511 25.1608Z" fill="white"/>
<path d="M131.507 23.7824C131.989 23.7125 132.525 23.7393 132.932 24.0285C133.016 24.0879 133.247 24.2872 133.23 24.3868C133.213 24.4865 132.931 24.6575 132.823 24.6545C132.684 24.6508 132.547 24.4247 132.394 24.3437C131.798 24.0285 130.637 24.4091 131.074 25.1444C131.3 25.5259 132.561 25.5348 132.825 26.1437C133.594 27.9154 130.536 28.4663 129.814 27.0738C130.395 26.5377 130.433 27.1362 130.942 27.2827C131.451 27.4292 132.415 27.36 132.341 26.6336C132.276 25.9816 130.972 25.9942 130.6 25.4686C130.056 24.6991 130.674 23.9043 131.506 23.7831L131.507 23.7824Z" fill="white"/>
<path d="M140.279 23.7809C140.763 23.6998 141.465 23.7274 141.885 23.9987C142.107 24.1422 142.324 24.2932 142.108 24.4961C141.648 24.9303 141.686 24.5482 141.366 24.3682C140.627 23.9534 139.648 24.479 139.317 25.1995C138.791 26.3444 139.245 27.508 140.634 27.334C140.949 27.2946 141.448 26.8916 141.511 26.8968C141.592 26.9035 141.84 27.0797 141.856 27.1541C141.907 27.3972 140.876 27.8262 140.633 27.853C137.607 28.1861 138.068 24.1511 140.278 23.7809H140.279Z" fill="white"/>
<path d="M135.242 22.7221L135.167 23.8381H136.134C136.241 24.7013 135.543 24.2158 135.01 24.4009C135.007 25.0909 134.518 26.2961 134.574 26.9162C134.62 27.4277 135.189 27.3682 135.539 27.1831C135.774 27.966 134.479 27.9147 134.158 27.5608C133.674 27.0262 134.412 25.0716 134.424 24.3586H133.68V23.8374C133.874 23.8032 134.367 23.9028 134.503 23.8054C134.751 23.6292 134.32 22.4285 135.242 22.7221Z" fill="white"/>
<path d="M97.3987 24.6552C97.3065 24.7638 97.0329 25.3816 96.9868 25.5444C96.8924 25.8768 96.6932 27.6686 96.5742 27.7704C96.5207 27.8165 96.175 27.7563 96.0605 27.7779L97.1051 21.4619L97.6961 21.4582C97.5995 22.4002 97.3043 23.3534 97.2865 24.2827C97.3972 24.1333 97.5407 24.0701 97.6954 23.9853C98.1727 24.0604 97.6954 24.3757 97.43 24.4872L97.398 24.6545L97.3987 24.6552Z" fill="white"/>
<path d="M97.6962 23.9861C98.1281 23.7504 98.3973 23.6947 98.9051 23.7809C100.648 24.0775 99.4248 26.6017 99.372 27.7065C99.2813 27.8351 98.9646 27.763 98.8107 27.7779C98.6828 27.65 99.4434 25.1616 99.0999 24.5526C98.7928 24.0084 97.7274 24.2656 97.398 24.656C96.9192 24.2924 97.9683 24.4523 97.6954 23.9868L97.6962 23.9861Z" fill="white"/>
<path d="M187.928 21.7509L187.129 26.1216L187.794 26.2431L188.592 21.8723L187.928 21.7509Z" fill="white"/>
<path d="M163.421 23.8381L162.74 27.6545C162.673 27.8567 162.333 27.7623 162.157 27.7786L162.818 23.8805L163.421 23.8381Z" fill="white"/>
<path d="M137.621 23.8374L137.014 27.6545C136.946 27.8567 136.608 27.7623 136.431 27.7786L137.039 23.9616C137.106 23.7586 137.444 23.8537 137.621 23.8374Z" fill="white"/>
<path d="M128.105 27.7786L128.751 23.9274C128.798 23.763 129.358 23.7764 129.339 23.9905L128.685 27.6522C128.608 27.8604 128.29 27.76 128.105 27.7779V27.7786Z" fill="white"/>
<path d="M102.083 23.8374L101.417 27.7303C101.363 27.8299 100.8 27.8329 100.834 27.6098L101.502 23.963C101.593 23.7519 101.886 23.856 102.083 23.8374Z" fill="white"/>
<path d="M150.335 25.4731C150.33 25.537 150.287 25.9935 150.261 25.9935H148.439C148.305 25.9935 148.374 25.4731 148.402 25.4731H150.335Z" fill="white"/>
<path d="M187.322 27.8143C187.583 27.8143 187.794 27.6029 187.794 27.3422C187.794 27.0814 187.583 26.8701 187.322 26.8701C187.061 26.8701 186.85 27.0814 186.85 27.3422C186.85 27.6029 187.061 27.8143 187.322 27.8143Z" fill="white"/>
<path d="M137.592 22.7712C137.824 22.7712 138.011 22.5838 138.011 22.3526C138.011 22.1215 137.824 21.9341 137.592 21.9341C137.361 21.9341 137.174 22.1215 137.174 22.3526C137.174 22.5838 137.361 22.7712 137.592 22.7712Z" fill="white"/>
<path d="M102.037 22.7735C102.267 22.7735 102.454 22.5871 102.454 22.3571C102.454 22.1272 102.267 21.9408 102.037 21.9408C101.807 21.9408 101.621 22.1272 101.621 22.3571C101.621 22.5871 101.807 22.7735 102.037 22.7735Z" fill="white"/>
<path d="M163.323 22.7817C163.551 22.7817 163.736 22.5969 163.736 22.369C163.736 22.1411 163.551 21.9564 163.323 21.9564C163.095 21.9564 162.91 22.1411 162.91 22.369C162.91 22.5969 163.095 22.7817 163.323 22.7817Z" fill="white"/>
<path d="M129.124 21.9935C129.806 21.7891 129.922 22.8069 129.182 22.7288C128.757 22.6842 128.867 22.0709 129.124 21.9935Z" fill="white"/>
<path d="M120.559 23.763C117.44 23.4188 116.822 28.0567 119.892 27.8552C120.343 27.8255 120.985 27.5429 121.313 27.2314C122.393 26.2061 122.315 23.9571 120.559 23.763ZM121.318 26.0835C120.813 27.8775 118.209 27.7756 118.532 25.7511C118.579 25.4627 118.915 24.7913 119.132 24.6047C120.245 23.6478 121.766 24.4902 121.318 26.0835Z" fill="white"/>
<path d="M127.213 23.8374C126.696 23.7868 126.595 23.8151 126.617 24.3578C126.318 24.2783 126.195 23.9779 125.888 23.8604C124.703 23.4039 123.371 24.1727 123.026 25.34C122.463 27.2426 124.261 28.4269 125.854 27.3586C125.924 27.3117 126.116 26.9586 126.098 27.2218C126.057 27.8158 125.83 28.6203 125.304 28.9563C124.85 29.2463 123.995 29.2909 123.516 29.0589C123.104 28.8597 122.981 28.2656 122.534 28.9414C123.391 30.1288 125.685 30.0173 126.322 28.6359C126.653 27.9177 127.139 25.0433 127.211 24.1712C127.22 24.0604 127.213 23.9489 127.213 23.8381V23.8374ZM125.077 27.2396C122.971 27.598 123.062 24.3348 125.118 24.2277C126.988 24.1311 126.744 26.9556 125.077 27.2396Z" fill="white"/>
</g>
<defs>
<clipPath id="clip0_7714_666">
<rect width="71.9101" height="36.7842" fill="white"/>
</clipPath>
<clipPath id="clip1_7714_666">
<rect width="119.85" height="22.7314" fill="white" transform="translate(80.1498 7.0264)"/>
</clipPath>
</defs>
</svg>
